# xmcd
#
# Track frame offsets:
#	150
#	16985
#	33222
#	52058
#	68852
#	84114
#	100527
#	121348
#	138428
#	155494
#	172031
#	189811
#	203868
#	220661
#	238558
#	260305
#	280896
#	301550
#	323929
#	341677
#
# Disc length: 4793
#
# Revision: 2
# Processed by: cddbd v1.5.1PL0 Copyright (c) Steve Scherf et al.
# Submitted via: audiograbber 1.83.01
# Normalized: r1:DSETVAR1
#
DISCID=0a12b714
DTITLE=Various Artist - Music 2001 Only Best 4. (2001)
DYEAR=1900
DGENRE=
TTITLE0=Down Low. - Don't You. (2 Step Mix)
TTITLE1=Roxette. - The Centre Of The Heart. (Stonen Bridge Club Mix)
TTITLE2=Madonna. - Lo Que Siente La Mujer. (Spanish Version)
TTITLE3=Eric Clapton. - I Aint Gonna Stand For It. (Playback Radio)
TTITLE4=Smoother. - East Side. (Radio Edit)
TTITLE5=Geri Halliwell. - It's Raining Man. (Glamour Mix Edit)
TTITLE6=Anastacia. - Cowboys and Kisses.
TTITLE7=Gorillaz. - Clin Eastwood. (Ed Case Rmx)
TTITLE8=Sugababes. - Run For Cover. (J-Walk Rmx)
TTITLE9=Coolio. - Gangbangers.
TTITLE10=Bee Gees. - This Is Where I Come In. (Single Version)
TTITLE11=Backstreet Boys. - The Call. (Thunderpuss Radio)
TTITLE12=Hooverphonic. - Mad About You.
TTITLE13=Britney Spears. - Don't Let Me Be The Last To Know.
TTITLE14=Modern Talking. - You're My Heart. (My Soul Extended Rap Version 2001)
TTITLE15=Sade. - Smooth Operator 2001.
TTITLE16=Spooks. - Thing I've Seen.
TTITLE17=Ricky Martin and Cristina Aguilera. - Solo Quiero Amarte. (J. Rivera's Mix)
TTITLE18=R.E.M. - Imitation Of Life.
TTITLE19=Limp Bizkit. - My Way. (Dj Premier Rmx)
EXTD=
EXTT0=
EXTT1=
EXTT2=
EXTT3=
EXTT4=
EXTT5=
EXTT6=
EXTT7=
EXTT8=
EXTT9=
EXTT10=
EXTT11=
EXTT12=
EXTT13=
EXTT14=
EXTT15=
EXTT16=
EXTT17=
EXTT18=
EXTT19=
PLAYORDER=
